<svg width="42" height="138" viewBox="0 0 42 138" fill="none" xmlns="http://www.w3.org/2000/svg">
<circle cx="3" cy="99" r="3" fill="#2A5164"/>
<circle cx="3" cy="27" r="3" fill="#2A5164"/>
<circle cx="27" cy="99" r="3" fill="#49B2E7" fill-opacity="0.2"/>
<circle cx="27" cy="27" r="3" fill="#49B2E7" fill-opacity="0.2"/>
<circle cx="15" cy="75" r="3" transform="rotate(90 15 75)" fill="#49B2E7" fill-opacity="0.2"/>
<circle cx="15" cy="3" r="3" transform="rotate(90 15 3)" fill="#49B2E7" fill-opacity="0.2"/>
<circle cx="39" cy="75" r="3" transform="rotate(90 39 75)" fill="#49B2E7" fill-opacity="0.2"/>
<circle cx="39" cy="3" r="3" transform="rotate(90 39 3)" fill="#49B2E7" fill-opacity="0.2"/>
<circle cx="15" cy="99" r="3" fill="#49B2E7" fill-opacity="0.2"/>
<circle cx="15" cy="27" r="3" fill="#49B2E7" fill-opacity="0.2"/>
<circle cx="39" cy="99" r="3" fill="#49B2E7" fill-opacity="0.2"/>
<circle cx="39" cy="27" r="3" fill="#49B2E7" fill-opacity="0.2"/>
<circle cx="15" cy="87" r="3" transform="rotate(90 15 87)" fill="#49B2E7" fill-opacity="0.2"/>
<circle cx="15" cy="15" r="3" transform="rotate(90 15 15)" fill="#49B2E7" fill-opacity="0.2"/>
<circle cx="39" cy="87" r="3" transform="rotate(90 39 87)" fill="#49B2E7" fill-opacity="0.2"/>
<circle cx="39" cy="15" r="3" transform="rotate(90 39 15)" fill="#49B2E7" fill-opacity="0.2"/>
<circle cx="3" cy="111" r="3" fill="#2A5164"/>
<circle cx="3" cy="39" r="3" fill="#2A5164"/>
<circle cx="27" cy="111" r="3" fill="#49B2E7" fill-opacity="0.2"/>
<circle cx="27" cy="39" r="3" fill="#49B2E7" fill-opacity="0.2"/>
<circle cx="3" cy="75" r="3" transform="rotate(90 3 75)" fill="#2A5164"/>
<circle cx="3" cy="3" r="3" transform="rotate(90 3 3)" fill="#2A5164"/>
<circle cx="27" cy="75" r="3" transform="rotate(90 27 75)" fill="#49B2E7" fill-opacity="0.2"/>
<circle cx="27" cy="3" r="3" transform="rotate(90 27 3)" fill="#49B2E7" fill-opacity="0.2"/>
<circle cx="15" cy="111" r="3" fill="#49B2E7" fill-opacity="0.2"/>
<circle cx="15" cy="39" r="3" fill="#49B2E7" fill-opacity="0.2"/>
<circle cx="39" cy="111" r="3" fill="#49B2E7" fill-opacity="0.2"/>
<circle cx="39" cy="39" r="3" fill="#49B2E7" fill-opacity="0.2"/>
<circle cx="3" cy="87" r="3" transform="rotate(90 3 87)" fill="#2A5164"/>
<circle cx="3" cy="15" r="3" transform="rotate(90 3 15)" fill="#2A5164"/>
<circle cx="27" cy="87" r="3" transform="rotate(90 27 87)" fill="#49B2E7" fill-opacity="0.2"/>
<circle cx="27" cy="15" r="3" transform="rotate(90 27 15)" fill="#49B2E7" fill-opacity="0.2"/>
<circle cx="3" cy="123" r="3" fill="#2A5164"/>
<circle cx="3" cy="51" r="3" fill="#2A5164"/>
<circle cx="27" cy="123" r="3" fill="#49B2E7" fill-opacity="0.2"/>
<circle cx="27" cy="51" r="3" fill="#49B2E7" fill-opacity="0.2"/>
<circle cx="15" cy="123" r="3" fill="#49B2E7" fill-opacity="0.2"/>
<circle cx="15" cy="51" r="3" fill="#49B2E7" fill-opacity="0.2"/>
<circle cx="39" cy="123" r="3" fill="#49B2E7" fill-opacity="0.2"/>
<circle cx="39" cy="51" r="3" fill="#49B2E7" fill-opacity="0.2"/>
<circle cx="3" cy="135" r="3" fill="#2A5164"/>
<circle cx="3" cy="63" r="3" fill="#2A5164"/>
<circle cx="27" cy="135" r="3" fill="#49B2E7" fill-opacity="0.2"/>
<circle cx="27" cy="63" r="3" fill="#49B2E7" fill-opacity="0.2"/>
<circle cx="15" cy="135" r="3" fill="#2A5164"/>
<circle cx="15" cy="63" r="3" fill="#49B2E7" fill-opacity="0.2"/>
<circle cx="39" cy="135" r="3" fill="#49B2E7" fill-opacity="0.2"/>
<circle cx="39" cy="63" r="3" fill="#49B2E7" fill-opacity="0.2"/>
</svg>
